:SAMPLES-PER-SECOND 30
:FULLY-SPECIFIED
:DEGREES
534
root  7.64578 35.1407 24.4562 175.241 -12.5154 178.266
RightUpLeg  -13.2162 6.07285 -28.1969
RightLeg  27.3028 5.61701 2.9269
RightFoot  -9.15183 -0.41797 18.3207
RightToes  1.33877e-009 0 -3.6325e-017
Spine  23.0516 -2.88504 2.17633
Spine1  12.2253 -2.72458 -0.600202
HEad  -22.8276 6.61817 -6.09727
LeftShoulder1  0.884479 -0.301601 -16.5102
LeftArm  -24.111 -21.3426 -44.7492
LeftForeArm  32.5383 -75.773 -49.2344
LeftHand  -0.147298 1.02497 3.80386
RightShoulder  0.218257 -2.48653 15.071
RightArm  -22.423 25.0973 34.7582
RightForeArm  24.2948 76.7691 61.4543
RightHand  -0.401333 3.66371 -5.39104
LeftUpLeg  -23.5416 16.6795 18.5587
LeftLeg  36.0486 -5.48292 -3.90805
LeftFoot  -2.72054 0.925674 -11.9646
LeftToes  -1.45701e-009 4.75788e-011 -4.21586e-011
535
root  6.20047 35.3258 24.5291 174.775 -12.0821 178.549
RightUpLeg  -10.8413 8.49615 -29.3086
RightLeg  22.888 2.53739 0.993839
RightFoot  -3.97633 -1.14622 17.4122
RightToes  1.33877e-009 0 -3.6325e-017
Spine  22.72 -2.24287 1.96329
Spine1  11.914 -2.0964 -0.607069
HEad  -21.091 5.73673 -6.43112
LeftShoulder1  0.837283 0.00361896 -17.2453
LeftArm  -22.1234 -22.6811 -45.2204
LeftForeArm  29.0519 -75.0182 -45.9175
LeftHand  -0.181215 0.706985 4.45821
RightShoulder  0.167442 -2.73664 15.6892
RightArm  -22.6541 23.6308 34.3746
RightForeArm  24.4291 76.7197 60.8109
RightHand  -0.334403 3.17663 -4.77229
LeftUpLeg  -23.7787 18.9598 16.6758
LeftLeg  38.8564 -6.29291 -5.02715
LeftFoot  -4.91821 0.549415 -9.29201
LeftToes  -1.45701e-009 4.75788e-011 -4.21586e-011
536
root  4.8324 35.7306 24.6112 174.76 -12.0325 178.98
RightUpLeg  -9.68591 8.87122 -29.3668
RightLeg  20.2793 -2.56809 -1.30133
RightFoot  3.78482 -1.7718 13.7182
RightToes  1.33877e-009 0 -3.6325e-017
Spine  22.1307 -2.13355 2.62993
Spine1  11.636 -1.71503 -1.01211
HEad  -20.8035 5.39382 -6.74547
LeftShoulder1  0.769539 0.33262 -17.6064
LeftArm  -20.5721 -23.1856 -45.1693
LeftForeArm  26.9421 -74.5034 -43.9336
LeftHand  -0.148539 1.1613 3.95878
RightShoulder  0.1364 -2.90045 16.7575
RightArm  -22.2583 22.4708 34.0842
RightForeArm  24.1412 76.6688 60.3643
RightHand  -0.346247 2.99476 -5.01731
LeftUpLeg  -23.5614 19.1652 14.7679
LeftLeg  39.3055 -6.04106 -4.90366
LeftFoot  -6.24423 0.378256 -7.67157
LeftToes  -1.45701e-009 4.75788e-011 -4.21586e-011
537
root  3.63613 36.2548 24.6676 175.527 -11.0626 179.494
RightUpLeg  -11.1575 5.2472 -28.1232
RightLeg  21.0251 -1.70155 -0.87484
RightFoot  8.01204 -1.53476 9.207
RightToes  1.33877e-009 0 -3.6325e-017
Spine  20.9919 -1.80261 3.54785
Spine1  11.5449 -0.951837 -1.71435
HEad  -21.308 5.89358 -7.30831
LeftShoulder1  0.758645 0.359865 -17.4658
LeftArm  -19.8682 -22.603 -44.486
LeftForeArm  27.5054 -74.5281 -43.8957
LeftHand  -0.110557 1.04865 2.84742
RightShoulder  0.144658 -2.88765 17.7415
RightArm  -21.322 21.9607 34.1164
RightForeArm  21.8533 76.3655 58.166
RightHand  -0.393591 3.69199 -5.28633
LeftUpLeg  -23.1538 18.5016 13.1446
LeftLeg  38.0875 -4.58884 -3.47766
LeftFoot  -6.71034 0.29393 -6.28209
LeftToes  -1.45701e-009 4.75788e-011 -4.21586e-011
538
root  2.76085 36.7325 24.7255 175.565 -10.6838 179.577
RightUpLeg  -12.2191 0.375961 -25.8401
RightLeg  25.1734 3.50821 1.53486
RightFoot  4.5404 -1.47996 10.8148
RightToes  1.33877e-009 0 -3.6325e-017
Spine  20.8881 -1.58981 3.18241
Spine1  11.4031 -0.546642 -2.78199
HEad  -21.9087 6.16109 -7.31418
LeftShoulder1  0.711755 0.575453 -17.6495
LeftArm  -19.3378 -21.9218 -43.6374
LeftForeArm  27.3831 -74.4712 -43.6644
LeftHand  -0.110963 0.904092 2.78065
RightShoulder  0.159958 -2.84263 18.5142
RightArm  -19.8043 22.0307 34.5442
RightForeArm  19.1337 75.8556 54.7108
RightHand  -0.386281 3.8568 -5.11089
LeftUpLeg  -21.7658 17.8217 11.6853
LeftLeg  36.0314 -3.4338 -2.31092
LeftFoot  -6.57022 0.26315 -5.38078
LeftToes  -1.45701e-009 4.75788e-011 -4.21586e-011
539
root  2.03445 37.2722 24.823 175.472 -10.7835 179.969
RightUpLeg  -13.2386 -3.08662 -22.2451
RightLeg  30.8856 2.28821 1.22901
RightFoot  1.824 -1.26975 11.0413
RightToes  1.33877e-009 0 -3.6325e-017
Spine  20.9332 -1.43785 2.55703
Spine1  11.2437 -0.571046 -2.61432
HEad  -22.0592 6.36985 -7.15019
LeftShoulder1  0.682932 0.684864 -17.5651
LeftArm  -19.4712 -21.2295 -42.7634
LeftForeArm  25.9058 -74.0856 -42.328
LeftHand  -0.111268 0.727782 2.69266
RightShoulder  0.144413 -2.9098 18.7555
RightArm  -17.7635 22.2485 35.7001
RightForeArm  16.1936 75.2189 51.0934
RightHand  -0.375555 4.04264 -4.88791
LeftUpLeg  -20.1136 17.5018 10.646
LeftLeg  33.001 -2.8916 -1.65249
LeftFoot  -5.7334 0.252589 -4.46079
LeftToes  -1.45701e-009 4.75788e-011 -4.21586e-011
